<?xml version="1.0" encoding="utf-8"?>
<!-- Generator: Adobe Illustrator 25.1.0, SVG Export Plug-In . SVG Version: 6.00 Build 0)  -->
<svg version="1.2" baseProfile="tiny" id="Layer_1" xmlns="http://www.w3.org/2000/svg" xmlns:xlink="http://www.w3.org/1999/xlink"
	 x="0px" y="0px" viewBox="0 0 180 33" overflow="visible" xml:space="preserve">
<path fill="#394651" d="M40.6,0H0.13C0.07,0,0,0.07,0,0.13v1.61c0,0.07,0.07,0.13,0.13,0.13h4.32c0.07,0,0.13,0.07,0.13,0.13v1.61
	c0,0.07,0.07,0.13,0.13,0.13h17.87c0.07,0,0.13-0.07,0.13-0.13V1.94c0-0.07,0.07-0.13,0.13-0.13h17.87c0.07,0,0.13-0.07,0.13-0.13
	V0.13C40.73,0.07,40.67,0,40.6,0z"/>
<path fill="#394651" d="M40.6,7.3H0.13C0.07,7.3,0,7.37,0,7.44v1.61c0,0.07,0.07,0.13,0.13,0.13h4.32c0.07,0,0.13,0.07,0.13,0.13
	v1.61c0,0.07,0.07,0.13,0.13,0.13h17.87c0.07,0,0.13-0.07,0.13-0.13V9.31c0-0.07,0.07-0.13,0.13-0.13h17.87
	c0.07,0,0.13-0.07,0.13-0.13V7.44C40.73,7.37,40.67,7.3,40.6,7.3z"/>
<path fill="#394651" d="M40.6,14.6H0.13C0.07,14.6,0,14.67,0,14.74v1.61c0,0.07,0.07,0.13,0.13,0.13h4.32
	c0.07,0,0.13,0.07,0.13,0.13v1.47c0,0.07,0.07,0.13,0.13,0.13h17.87c0.07,0,0.13-0.07,0.13-0.13v-1.61c0-0.07,0.07-0.13,0.13-0.13
	h17.87c0.07,0,0.13-0.07,0.13-0.13v-1.47C40.73,14.67,40.67,14.6,40.6,14.6z"/>
<path fill="#394651" d="M40.73,23.71v-1.67c0-0.07-0.07-0.13-0.13-0.13H0.13C0.07,21.9,0,21.97,0,22.04v1.61
	c0,0.07,0.07,0.13,0.13,0.13h4.32c0.07,0,0.13,0.07,0.13,0.13v1.61c0,0.07,0.07,0.13,0.13,0.13h35.95c0.07,0,0.13-0.07,0.13-0.13
	L40.73,23.71z"/>
<path fill="#394651" d="M40.73,31.02v-1.67c0-0.07-0.07-0.13-0.13-0.13H0.13C0.07,29.21,0,29.27,0,29.34v1.61
	c0,0.07,0.07,0.13,0.13,0.13h4.32c0.07,0,0.13,0.07,0.13,0.13v1.61c0,0.07,0.07,0.13,0.13,0.13h35.95c0.07,0,0.13-0.07,0.13-0.13
	L40.73,31.02z"/>
<path fill="#394651" d="M63.12,1.81h4.99c0.07,0,0.13,0.07,0.13,0.13v24.05c0,0.07,0.07,0.13,0.13,0.13h11.73
	c0.07,0,0.13,0.07,0.13,0.13v4.56c0,0.07-0.07,0.13-0.13,0.13h-17c-0.07,0-0.13-0.07-0.13-0.13V1.94
	C62.99,1.88,63.06,1.81,63.12,1.81z"/>
<path fill="#394651" d="M85.45,26.06V6.77c0-2.75,2.23-4.96,4.99-4.96h10.05c2.76,0,4.99,2.21,4.99,4.96v19.23
	c0,2.75-2.23,4.96-4.99,4.96H90.37C87.67,31.01,85.45,28.8,85.45,26.06z M100.15,7.9c0-0.74-0.61-1.27-1.28-1.27h-6.81
	c-0.74,0-1.35,0.6-1.35,1.34v16.95c0,0.74,0.61,1.27,1.28,1.27h6.81c0.74,0,1.35-0.6,1.35-1.34V7.9z"/>
<path fill="#394651" d="M125.91,20.9h4.99c0.07,0,0.13,0.07,0.13,0.13v5.02c0,2.75-2.23,4.96-4.99,4.96h-9.64
	c-2.7,0-4.92-2.21-4.92-4.89V6.77c0-2.75,2.23-4.96,4.99-4.96h9.58c2.76,0,4.99,2.21,4.99,4.96v4.76c0,0.07-0.07,0.13-0.13,0.13
	h-4.99c-0.07,0-0.14-0.07-0.14-0.13V7.9c0-0.74-0.61-1.27-1.28-1.27h-6.41c-0.74,0-1.35,0.6-1.35,1.34v16.95
	c0,0.74,0.61,1.27,1.28,1.27h6.41c0.74,0,1.35-0.6,1.35-1.34v-3.82C125.78,20.97,125.85,20.9,125.91,20.9z"/>
<path fill="#394651" d="M137.31,1.81h4.99c0.07,0,0.13,0.07,0.13,0.13v13.06c0,0.13,0.2,0.2,0.27,0.07l8.9-13.2
	c0-0.07,0.07-0.07,0.14-0.07h5.8c0.13,0,0.2,0.13,0.13,0.2l-9.64,14.2c0,0.07,0,0.13,0,0.13l10.05,14.4c0.07,0.07,0,0.2-0.13,0.2
	h-5.8c-0.07,0-0.07,0-0.14-0.07l-9.31-13.4c-0.07-0.13-0.27-0.07-0.27,0.07v13.2c0,0.07-0.07,0.13-0.13,0.13h-4.99
	c-0.07,0-0.13-0.07-0.13-0.13V1.94C137.18,1.88,137.24,1.81,137.31,1.81z"/>
<path fill="#394651" d="M162.33,1.81h17.54c0.07,0,0.13,0.07,0.13,0.13V6.5c0,0.07-0.07,0.13-0.13,0.13h-12.27
	c-0.07,0-0.14,0.07-0.14,0.13v6.97c0,0.07,0.07,0.13,0.14,0.13h11.13c0.07,0,0.13,0.07,0.13,0.13v4.56c0,0.07-0.07,0.13-0.13,0.13
	h-11.13c-0.07,0-0.14,0.07-0.14,0.13v7.23c0,0.07,0.07,0.13,0.14,0.13h12.27c0.07,0,0.13,0.07,0.13,0.13v4.56
	c0,0.07-0.07,0.13-0.13,0.13h-17.54c-0.07,0-0.13-0.07-0.13-0.13V1.94C162.2,1.88,162.26,1.81,162.33,1.81z"/>
</svg>
